<?xml version="1.0" encoding="UTF-8"?>
<svg xmlns="http://www.w3.org/2000/svg" version="1.1" xmlns:xlink="http://www.w3.org/1999/xlink" viewBox="0 0 3593.9 634.2">
  <defs>
    <style>
      .cls-1 {
        fill: url(#linear-gradient-2);
      }

      .cls-2 {
        fill: url(#linear-gradient-3);
      }

      .cls-3 {
        fill: url(#linear-gradient);
      }
    </style>
    <linearGradient id="linear-gradient" x1="2079.5" y1="428.3" x2="2074.9" y2="249.1" gradientTransform="translate(0 633.9) scale(1 -1)" gradientUnits="userSpaceOnUse">
      <stop offset="0" stop-color="#1b03f9"/>
      <stop offset="1" stop-color="#1602ca"/>
    </linearGradient>
    <linearGradient id="linear-gradient-2" x1="2206.1" y1="425.1" x2="2201.5" y2="245.9" gradientTransform="translate(0 633.9) scale(1 -1)" gradientUnits="userSpaceOnUse">
      <stop offset="0" stop-color="#1b03f9"/>
      <stop offset="1" stop-color="#1602ca"/>
    </linearGradient>
    <linearGradient id="linear-gradient-3" x1="2576.5" y1="223.9" x2="2576.5" y2="421.9" gradientTransform="matrix(1,0,0,1,0,0)" xlink:href="#linear-gradient-2"/>
  </defs>
  <!-- Generator: Adobe Illustrator 28.7.1, SVG Export Plug-In . SVG Version: 1.2.0 Build 142)  -->
  <g>
    <g id="Layer_1">
      <path class="cls-3" d="M2199.4,513.7h-244.5c-57.5,0-111.6-22.4-152.2-63.1s-63.1-94.7-63.1-152.2,22.4-111.6,63.1-152.2c40.7-40.7,94.7-63.1,152.2-63.1h244.5c57.5,0,111.6,22.4,152.2,63.1,40.7,40.7,63.1,94.7,63.1,152.2s-22.4,111.6-63.1,152.2c-40.7,40.7-94.7,63.1-152.2,63.1ZM1954.9,98.3c-110.3,0-200,89.7-200,200s89.7,200,200,200h244.5c110.3,0,200-89.7,200-200s-89.7-200-200-200h-244.5,0Z"/>
      <circle class="cls-1" cx="2203.8" cy="298.4" r="167.5"/>
      <g>
        <path d="M384.6,283.5v174.2h-83.7v-30.7c-17.3,22.8-45.5,34.6-81.7,34.6-56.9,0-91.6-34.6-91.6-83.7s36.1-80.2,102.5-80.7h70.3v-4c0-26.2-17.3-42.1-52-42.1s-51.5,7.9-79.7,22.3l-24.3-56.4c41.6-19.3,79.2-30.2,123.7-30.2,73.3,0,115.8,36.1,116.3,96.5l.2.2ZM300.4,367.2v-23.8h-54c-25.7,0-38.6,8.9-38.6,28.7s13.9,31.7,37.6,31.7,49.5-14.9,54.9-36.6h.1Z"/>
        <path d="M423,457.8V90.5h85.6v367.3h-85.6Z"/>
        <path d="M804.6,457.8l-52.5-169.3-52.5,169.3h-85.1l-97.5-266.8h87.1l54.9,184.6,53.5-184.6h81.7l54.9,184.6,54-184.6h83.7l-97.5,266.8h-84.7Z"/>
        <path d="M1229.5,283.5v174.2h-83.7v-30.7c-17.3,22.8-45.5,34.6-81.7,34.6-56.9,0-91.6-34.6-91.6-83.7s36.1-80.2,102.5-80.7h70.3v-4c0-26.2-17.3-42.1-52-42.1s-51.5,7.9-79.7,22.3l-24.3-56.4c41.6-19.3,79.2-30.2,123.8-30.2,73.3,0,115.8,36.1,116.3,96.5v.2ZM1145.3,367.2v-23.8h-54c-25.7,0-38.6,8.9-38.6,28.7s13.9,31.7,37.6,31.7,49.5-14.9,54.9-36.6h0Z"/>
        <path d="M1399.2,485.5c-19.8,48.5-53.5,72.3-103,72.3s-54-8.9-77.7-27.2l35.6-58.4c12.4,9.9,22.8,14.4,35.1,14.4s26.2-6.9,33.2-21.3l6.4-13.4-110.9-260.9h88.1l65.3,177.2,57.9-177.2h85.1l-115.3,294.5h.2Z"/>
        <path d="M1722.4,217.2l-29.2,55.4c-32.2-17.3-61.9-26.7-84.2-26.7s-26.2,5.9-26.2,18.3c0,36.6,140.6,18.8,140.1,111.9,0,54.9-48,85.1-112.4,85.1s-87.6-12.9-119.8-37.6l27.2-54.5c30.2,21.3,64.8,33.2,94.5,33.2s29.2-5.9,29.2-18.3c0-39.1-138.1-18.8-137.6-112.4,0-54.9,46.5-84.6,108.4-84.6s77.2,10.9,109.9,30.2h0Z"/>
      </g>
      <g>
        <path class="cls-2" d="M2712.5,289.5v168.3h-85.1v-144.5c0-31.2-18.3-50.5-47-50.5s-51,22.3-54.4,54v141.1h-85.6V191h85.6v43.6c18.8-31.2,49.5-47,89.1-47.5,58.9,0,97.5,40.1,97.5,102.5h-.1Z"/>
        <path d="M3125.1,501.3c-26.7,23.8-65.8,38.1-100.5,38.1s-88.6-29.7-111.4-77.7c-103.5-3.5-180.2-78.2-180.2-177.7s80.2-175.7,187.1-175.7,187.6,75.2,187.6,175.7-46,139.6-115.3,165.3c11.9,14.8,26.2,23.8,42.1,23.8s38.1-9.9,59.4-26.2l31.2,54.4h0ZM2921.2,388c53.5,0,96-45,96-103.5s-42.6-102.5-96-102.5-98,44.1-98,102.5,45,103.5,98,103.5Z"/>
        <path d="M3293.5,360.3h-69.3v97.5h-88.1V111.3h154.9c91.6,0,144,43.6,144,120.8s-22.3,91.1-62.9,111.4l72.8,114.3h-100l-51.5-97.5h.1ZM3291,291c38.1,0,60.4-19.3,60.4-55.9s-22.3-54.4-60.4-54.4h-66.8v110.4h66.8Z"/>
      </g>
    </g>
  </g>
</svg>